<svg xmlns="http://www.w3.org/2000/svg" xmlns:xlink="http://www.w3.org/1999/xlink" width="500" zoomAndPan="magnify" viewBox="0 0 375 374.999991" height="500" preserveAspectRatio="xMidYMid meet" version="1.0"><defs><g/><clipPath id="4206588005"><path d="M 100 56 L 275 56 L 275 216.6875 L 100 216.6875 Z M 100 56 " clip-rule="nonzero"/></clipPath><clipPath id="436dcd0b3c"><path d="M 36.832031 233.566406 L 338.1875 233.566406 L 338.1875 280.164062 L 36.832031 280.164062 Z M 36.832031 233.566406 " clip-rule="nonzero"/></clipPath><clipPath id="50e5cf43af"><path d="M 289.160156 233.566406 L 100.488281 233.566406 L 86.335938 233.621094 L 36.832031 280.097656 L 289.6875 280.097656 L 338.167969 233.566406 L 289.160156 233.566406 " clip-rule="nonzero"/></clipPath></defs><rect x="-37.5" width="450" fill="#ffffff" y="-37.499999" height="449.999989" fill-opacity="1"/><rect x="-37.5" width="450" fill="#ffffff" y="-37.499999" height="449.999989" fill-opacity="1"/><rect x="-37.5" width="450" fill="#000000" y="-37.499999" height="449.999989" fill-opacity="1"/><g clip-path="url(#4206588005)"><path fill="#000000" d="M 230.933594 57.25 L 230.140625 58.078125 L 226.832031 61.386719 C 226.867188 61.347656 226.902344 61.3125 226.941406 61.3125 C 226.761719 61.53125 226.761719 61.925781 226.902344 62.429688 L 226.472656 62.859375 C 225.894531 62.714844 225.464844 62.789062 225.175781 63.039062 L 223.519531 64.695312 L 222.695312 65.523438 C 222.730469 65.484375 222.765625 65.449219 222.800781 65.449219 C 222.621094 65.664062 222.621094 66.0625 222.765625 66.566406 L 222.332031 66.996094 C 221.757812 66.851562 221.324219 66.925781 221.039062 67.175781 L 219.382812 68.832031 L 218.554688 69.65625 C 218.589844 69.621094 218.628906 69.585938 218.664062 69.585938 C 218.484375 69.800781 218.484375 70.195312 218.628906 70.699219 L 218.484375 70.84375 C 217.90625 70.699219 217.476562 70.773438 217.1875 71.023438 L 194.839844 93.359375 C 193.582031 94.617188 199.769531 102.316406 207.832031 110.875 C 202.507812 115.945312 194.589844 123.535156 187.394531 130.082031 C 180.195312 123.535156 172.242188 115.984375 166.84375 110.765625 C 174.90625 102.242188 181.09375 94.546875 179.835938 93.25 L 157.488281 70.917969 C 157.238281 70.664062 156.804688 70.59375 156.195312 70.738281 L 156.050781 70.59375 C 156.195312 70.089844 156.195312 69.695312 156.015625 69.476562 C 156.050781 69.515625 156.085938 69.515625 156.121094 69.550781 L 155.292969 68.722656 L 154.46875 67.894531 L 153.640625 67.066406 C 153.386719 66.816406 152.957031 66.746094 152.34375 66.886719 L 151.910156 66.457031 C 152.054688 65.953125 152.054688 65.558594 151.875 65.339844 C 151.910156 65.378906 151.949219 65.378906 151.984375 65.414062 L 150.328125 63.757812 L 149.5 62.933594 C 149.25 62.679688 148.816406 62.609375 148.207031 62.753906 L 147.773438 62.320312 C 147.917969 61.816406 147.917969 61.421875 147.738281 61.207031 C 147.773438 61.242188 147.808594 61.242188 147.847656 61.277344 L 147.089844 60.523438 L 143.816406 57.25 C 139.894531 53.328125 97 96.199219 100.921875 100.121094 L 102.578125 101.777344 L 103.40625 102.601562 L 104.234375 103.429688 L 105.058594 104.257812 C 105.023438 104.222656 104.988281 104.1875 104.988281 104.148438 C 105.238281 104.328125 105.671875 104.328125 106.320312 104.113281 L 106.609375 104.402344 C 106.425781 105.085938 106.425781 105.625 106.75 105.910156 L 109.234375 108.394531 C 109.199219 108.359375 109.164062 108.320312 109.164062 108.285156 C 109.414062 108.464844 109.847656 108.464844 110.492188 108.25 L 110.78125 108.539062 C 110.601562 109.222656 110.601562 109.761719 110.925781 110.046875 L 113.410156 112.53125 C 113.371094 112.492188 113.335938 112.457031 113.335938 112.421875 C 113.589844 112.601562 114.019531 112.601562 114.667969 112.386719 C 114.488281 113.070312 114.488281 113.609375 114.8125 113.894531 L 137.160156 136.230469 C 138.453125 137.492188 146.296875 131.160156 154.933594 122.996094 C 159.863281 128.101562 166.882812 135.476562 173.179688 142.347656 C 162.816406 150.007812 153.890625 155.292969 151.011719 155.546875 C 150.222656 155.617188 149.355469 155.113281 148.457031 154.394531 L 149.71875 153.136719 C 150.148438 152.703125 150.148438 151.949219 149.71875 151.515625 L 147.234375 149.035156 C 146.800781 148.605469 146.046875 148.605469 145.613281 149.035156 L 144.175781 150.472656 C 143.023438 149.609375 141.980469 149.25 141.152344 150.078125 C 138.667969 152.558594 117.332031 173.886719 117.332031 173.886719 C 117.332031 173.886719 114.777344 175.9375 116.574219 178.0625 L 114.957031 179.679688 C 114.523438 180.109375 114.523438 180.867188 114.957031 181.296875 L 117.4375 183.777344 C 117.871094 184.210938 118.625 184.210938 119.058594 183.777344 L 120.136719 182.699219 C 121.144531 184.390625 121.9375 186.261719 122.226562 188.167969 C 122.730469 191.800781 124.238281 196.871094 128.558594 201.582031 C 128.59375 201.617188 128.628906 201.691406 128.667969 201.726562 C 128.773438 201.835938 128.917969 201.941406 129.027344 202.050781 C 129.132812 202.15625 129.242188 202.300781 129.351562 202.410156 C 129.386719 202.445312 129.421875 202.480469 129.492188 202.519531 C 134.207031 206.832031 139.28125 208.34375 142.914062 208.847656 C 144.789062 209.101562 146.695312 209.925781 148.386719 210.933594 L 147.304688 212.011719 C 146.875 212.445312 146.875 213.199219 147.304688 213.632812 L 149.789062 216.113281 C 150.222656 216.542969 150.976562 216.542969 151.410156 216.113281 L 153.027344 214.496094 C 155.152344 216.292969 157.203125 213.738281 157.203125 213.738281 C 157.203125 213.738281 178.578125 192.375 181.023438 189.929688 C 181.851562 189.101562 181.457031 188.058594 180.628906 186.910156 L 182.066406 185.46875 C 182.5 185.039062 182.5 184.28125 182.066406 183.851562 L 179.585938 181.371094 C 179.152344 180.9375 178.398438 180.9375 177.964844 181.371094 L 176.707031 182.628906 C 175.984375 181.730469 175.480469 180.867188 175.554688 180.074219 C 175.804688 177.339844 180.554688 169.175781 187.609375 159.5 C 194.625 169.175781 199.410156 177.339844 199.664062 180.074219 C 199.734375 180.867188 199.230469 181.730469 198.511719 182.628906 L 197.253906 181.371094 C 196.820312 180.9375 196.066406 180.9375 195.632812 181.371094 L 193.148438 183.851562 C 192.71875 184.28125 192.71875 185.039062 193.148438 185.46875 L 194.589844 186.910156 C 193.726562 188.058594 193.367188 189.101562 194.195312 189.929688 C 196.675781 192.410156 218.015625 213.738281 218.015625 213.738281 C 218.015625 213.738281 220.066406 216.292969 222.191406 214.496094 L 223.808594 216.113281 C 224.242188 216.542969 224.996094 216.542969 225.429688 216.113281 L 227.910156 213.632812 C 228.34375 213.199219 228.34375 212.445312 227.910156 212.011719 L 226.832031 210.933594 C 228.523438 209.925781 230.394531 209.136719 232.300781 208.847656 C 235.9375 208.34375 241.007812 206.832031 245.722656 202.519531 C 245.757812 202.480469 245.832031 202.445312 245.867188 202.410156 C 245.976562 202.300781 246.082031 202.15625 246.191406 202.050781 C 246.300781 201.941406 246.441406 201.835938 246.550781 201.726562 C 246.585938 201.691406 246.625 201.65625 246.660156 201.582031 C 250.976562 196.871094 252.488281 191.800781 252.992188 188.167969 C 253.246094 186.296875 254.070312 184.390625 255.078125 182.699219 L 256.160156 183.777344 C 256.589844 184.210938 257.347656 184.210938 257.777344 183.777344 L 260.261719 181.296875 C 260.691406 180.867188 260.691406 180.109375 260.261719 179.679688 L 258.640625 178.0625 C 260.441406 175.9375 257.886719 173.886719 257.886719 173.886719 C 257.886719 173.886719 236.511719 152.523438 234.066406 150.078125 C 233.238281 149.25 232.195312 149.648438 231.042969 150.472656 L 229.601562 149.035156 C 229.171875 148.605469 228.414062 148.605469 227.984375 149.035156 L 225.5 151.515625 C 225.070312 151.949219 225.070312 152.703125 225.5 153.136719 L 226.761719 154.394531 C 225.859375 155.113281 224.996094 155.617188 224.203125 155.546875 C 221.324219 155.292969 212.402344 150.007812 202.039062 142.347656 C 208.335938 135.476562 215.351562 128.101562 220.28125 122.996094 C 228.917969 131.160156 236.761719 137.492188 238.058594 136.230469 L 260.40625 113.898438 C 260.691406 113.609375 260.730469 113.105469 260.550781 112.386719 C 261.160156 112.601562 261.628906 112.601562 261.878906 112.421875 C 261.84375 112.457031 261.84375 112.492188 261.808594 112.53125 L 264.292969 110.046875 C 264.578125 109.761719 264.617188 109.257812 264.433594 108.539062 L 264.722656 108.25 C 265.335938 108.464844 265.804688 108.464844 266.054688 108.285156 C 266.019531 108.320312 266.019531 108.359375 265.984375 108.394531 L 266.808594 107.566406 L 268.464844 105.910156 C 268.753906 105.625 268.789062 105.121094 268.609375 104.402344 L 268.898438 104.113281 C 269.507812 104.328125 269.976562 104.328125 270.230469 104.148438 C 270.191406 104.1875 270.191406 104.222656 270.15625 104.257812 L 271.8125 102.601562 L 272.640625 101.777344 L 274.296875 100.121094 C 277.75 96.199219 234.890625 53.328125 230.933594 57.25 Z M 146.800781 103.105469 C 146.046875 103.863281 144.96875 104.078125 143.996094 103.789062 C 143.707031 102.820312 143.921875 101.738281 144.679688 100.984375 C 145.433594 100.230469 146.515625 100.011719 147.484375 100.300781 C 147.773438 101.308594 147.558594 102.386719 146.800781 103.105469 Z M 157.921875 195.035156 C 151.550781 199.929688 142.519531 199.605469 136.835938 193.921875 C 131.148438 188.238281 130.789062 179.210938 135.71875 172.84375 C 142.089844 167.953125 151.121094 168.277344 156.804688 173.960938 C 162.492188 179.644531 162.816406 188.671875 157.921875 195.035156 Z M 217.945312 173.960938 C 223.628906 168.277344 232.660156 167.917969 239.03125 172.84375 C 243.925781 179.210938 243.601562 188.238281 237.914062 193.921875 C 232.230469 199.605469 223.199219 199.964844 216.828125 195.035156 C 211.933594 188.671875 212.292969 179.644531 217.945312 173.960938 Z M 230.753906 103.789062 C 229.78125 104.078125 228.703125 103.863281 227.949219 103.105469 C 227.191406 102.351562 226.976562 101.273438 227.261719 100.300781 C 228.234375 100.011719 229.316406 100.230469 230.070312 100.984375 C 230.789062 101.738281 231.042969 102.820312 230.753906 103.789062 Z M 230.753906 103.789062 " fill-opacity="1" fill-rule="nonzero"/></g><path fill="#fefefe" d="M 189.445312 131.914062 C 189.265625 131.734375 189.046875 131.554688 188.867188 131.414062 C 189.265625 131.050781 189.695312 130.65625 190.089844 130.296875 C 201.460938 120.011719 210.351562 112.132812 210.496094 111.992188 C 210.496094 111.992188 202.003906 120.585938 190.632812 130.871094 C 190.234375 131.230469 189.839844 131.59375 189.445312 131.914062 Z M 163.425781 163.242188 L 166.917969 166.730469 C 169.039062 168.851562 172.53125 168.710938 174.582031 166.40625 L 184.40625 155.367188 C 184.046875 154.933594 183.6875 154.464844 183.289062 153.964844 C 174.941406 162.632812 169.652344 166.261719 163.679688 162.882812 C 163.464844 162.773438 163.246094 163.0625 163.425781 163.242188 Z M 208.765625 98.25 L 222.835938 84.1875 C 224.277344 82.75 226.542969 82.535156 227.949219 83.757812 C 234.53125 89.367188 240.648438 95.480469 246.15625 101.957031 C 247.34375 103.359375 247.164062 105.625 245.722656 107.0625 L 231.691406 121.089844 C 225.894531 113.609375 216.253906 103.96875 208.765625 98.25 Z M 224.746094 106.308594 C 227.585938 109.148438 232.195312 109.148438 235.035156 106.308594 C 237.878906 103.464844 237.878906 98.863281 235.035156 96.019531 C 232.195312 93.179688 227.585938 93.179688 224.746094 96.019531 C 221.902344 98.863281 221.902344 103.503906 224.746094 106.308594 Z M 195.957031 93.683594 L 196.460938 93.179688 C 197.71875 91.921875 201.460938 93.828125 206.210938 97.386719 L 221.507812 82.101562 C 223.304688 80.304688 226.21875 80.195312 228.128906 81.851562 C 235.683594 88.324219 242.699219 95.375 249.070312 102.78125 C 250.726562 104.6875 250.617188 107.601562 248.816406 109.402344 L 233.5625 124.652344 C 237.195312 129.507812 239.175781 133.320312 237.914062 134.578125 L 237.410156 135.082031 C 242.195312 130.296875 200.742188 88.863281 195.957031 93.683594 Z M 206.859375 97.855469 C 215.28125 104.292969 226.617188 115.585938 233.09375 124.039062 L 248.277344 108.859375 C 249.789062 107.351562 249.898438 104.90625 248.496094 103.285156 C 242.160156 95.914062 235.144531 88.898438 227.625 82.425781 C 226.003906 81.023438 223.558594 81.132812 222.046875 82.640625 Z M 197.359375 138.785156 C 197.71875 139.074219 198.082031 139.359375 198.402344 139.648438 L 216.46875 119.398438 C 208.949219 126.558594 202.6875 133.066406 197.359375 138.785156 Z M 253.640625 102.207031 C 246.15625 93.289062 237.84375 84.980469 228.917969 77.5 C 226.832031 75.734375 224.566406 74.046875 222.261719 72.535156 C 221.972656 72.355469 220.714844 71.636719 220.355469 71.457031 C 220.824219 71.742188 221.722656 72.285156 222.226562 72.570312 C 224.492188 74.117188 226.6875 75.878906 228.773438 77.640625 C 237.589844 85.230469 245.867188 93.503906 253.460938 102.316406 C 255.117188 104.292969 256.808594 106.378906 258.28125 108.539062 C 258.640625 109.039062 259.289062 110.191406 259.648438 110.765625 C 259.289062 110.15625 258.75 109.113281 258.316406 108.5 C 256.914062 106.308594 255.296875 104.183594 253.640625 102.207031 Z M 225.285156 105.769531 C 222.765625 103.25 222.765625 99.113281 225.285156 96.5625 C 227.804688 94.042969 231.941406 94.042969 234.496094 96.5625 C 237.050781 99.078125 237.015625 103.214844 234.496094 105.769531 C 231.941406 108.320312 227.804688 108.320312 225.285156 105.769531 Z M 234.246094 99.511719 C 233.957031 98.933594 233.5625 98.429688 232.949219 98.105469 C 234.136719 100.011719 234.101562 102.351562 232.949219 104.257812 C 233.523438 103.933594 233.957031 103.429688 234.246094 102.855469 C 234.066406 103.503906 233.777344 104.078125 233.417969 104.726562 C 234.136719 104.292969 234.605469 103.644531 234.929688 102.890625 C 234.710938 103.683594 234.386719 104.472656 233.882812 105.15625 C 236.582031 103.429688 236.582031 98.898438 233.882812 97.171875 C 234.386719 97.890625 234.710938 98.683594 234.929688 99.472656 C 234.640625 98.71875 234.136719 98.070312 233.417969 97.640625 C 233.777344 98.25 234.066406 98.863281 234.246094 99.511719 Z M 227.371094 98.648438 C 225.96875 100.050781 225.96875 102.28125 227.371094 103.683594 C 228.773438 105.085938 231.007812 105.085938 232.410156 103.683594 C 233.8125 102.28125 233.8125 100.050781 232.410156 98.648438 C 231.007812 97.28125 228.773438 97.28125 227.371094 98.648438 Z M 225.894531 105.15625 C 225.390625 104.4375 225.070312 103.644531 224.851562 102.855469 C 225.140625 103.609375 225.644531 104.257812 226.363281 104.6875 C 226.003906 104.113281 225.714844 103.464844 225.535156 102.820312 C 225.824219 103.394531 226.21875 103.898438 226.832031 104.222656 C 225.644531 102.316406 225.679688 99.976562 226.832031 98.070312 C 226.257812 98.394531 225.824219 98.898438 225.535156 99.472656 C 225.714844 98.828125 226.003906 98.25 226.363281 97.605469 C 225.644531 98.035156 225.175781 98.683594 224.851562 99.4375 C 225.070312 98.648438 225.390625 97.855469 225.894531 97.136719 C 223.199219 98.898438 223.199219 103.429688 225.894531 105.15625 Z M 200.457031 140.691406 C 210.746094 129.324219 218.664062 120.40625 218.808594 120.261719 C 218.808594 120.261719 210.171875 128.785156 199.878906 140.152344 C 199.769531 140.296875 199.664062 140.402344 199.519531 140.546875 C 199.734375 140.726562 199.953125 140.871094 200.132812 141.015625 C 200.273438 140.90625 200.347656 140.800781 200.457031 140.691406 Z M 241.082031 89.980469 C 254.539062 103.429688 260.007812 111.667969 259.578125 113.214844 L 259.578125 113.25 L 238.957031 133.859375 L 239.03125 133.28125 C 239.136719 132.3125 238.492188 130.082031 234.675781 124.972656 L 234.570312 124.832031 L 249.824219 109.582031 C 251.625 107.78125 251.734375 104.832031 250.078125 102.890625 C 243.382812 95.121094 235.972656 87.675781 228.019531 80.84375 C 226.074219 79.152344 223.125 79.261719 221.324219 81.058594 L 206.03125 96.34375 L 205.890625 96.238281 C 200.886719 92.496094 198.691406 91.886719 197.757812 91.992188 L 197.179688 92.066406 L 217.800781 71.457031 L 217.835938 71.457031 C 219.382812 71.058594 227.625 76.527344 241.082031 89.980469 Z M 201.535156 92.890625 L 221.144531 73.289062 C 220.535156 72.894531 219.921875 72.535156 219.3125 72.246094 L 199.589844 91.957031 C 200.132812 92.171875 200.777344 92.460938 201.535156 92.890625 C 201.5 92.890625 201.535156 92.890625 201.535156 92.890625 Z M 227.191406 77.75 C 226.507812 77.175781 225.789062 76.636719 225.105469 76.097656 C 224.3125 75.484375 223.59375 74.980469 222.835938 74.40625 L 203.296875 93.933594 C 204.234375 94.546875 205.132812 95.195312 206.03125 95.839844 C 207.363281 94.871094 221.902344 79.046875 223.414062 79.476562 C 223.414062 79.476562 224.996094 77.894531 224.996094 77.894531 C 225.320312 77.425781 226.148438 77.460938 227.191406 77.75 Z M 253.460938 104.042969 L 251.660156 105.839844 C 251.734375 107.316406 251.191406 108.824219 250.148438 109.867188 L 235.109375 124.902344 C 236.621094 126.953125 238.167969 129.074219 239.101562 131.449219 L 258.820312 111.738281 C 257.417969 109.003906 255.402344 106.453125 253.460938 104.042969 Z M 248.890625 100.949219 C 249.503906 101.667969 250.1875 102.351562 250.726562 103.140625 C 250.832031 103.324219 250.941406 103.464844 251.050781 103.644531 L 252.199219 102.496094 C 251.734375 101.957031 251.265625 101.378906 250.726562 100.804688 C 250.1875 100.191406 249.644531 99.582031 249.070312 98.933594 C 249.320312 99.871094 249.285156 100.589844 248.890625 100.949219 Z M 263.429688 97.242188 C 264.867188 99.078125 266.308594 100.949219 267.421875 103 C 266.34375 100.914062 264.976562 99.007812 263.535156 97.136719 C 259.21875 91.597656 254.394531 86.453125 249.464844 81.453125 C 244.464844 76.527344 239.320312 71.707031 233.777344 67.390625 C 231.90625 65.988281 230 64.585938 227.910156 63.542969 C 230 64.621094 231.871094 66.0625 233.703125 67.5 C 239.210938 71.886719 244.320312 76.707031 249.285156 81.632812 C 254.214844 86.632812 259.039062 91.742188 263.429688 97.242188 Z M 254.683594 101.128906 C 247.199219 92.207031 238.886719 83.902344 229.960938 76.417969 C 227.875 74.65625 225.609375 72.964844 223.304688 71.457031 C 223.015625 71.277344 221.757812 70.558594 221.398438 70.378906 C 221.867188 70.664062 222.765625 71.203125 223.269531 71.492188 C 225.535156 73.039062 227.730469 74.800781 229.820312 76.5625 C 238.632812 84.152344 246.910156 92.425781 254.503906 101.234375 C 256.160156 103.214844 257.851562 105.300781 259.324219 107.457031 C 259.6875 107.960938 260.332031 109.113281 260.691406 109.6875 C 260.332031 109.078125 259.792969 108.035156 259.363281 107.421875 C 257.996094 105.265625 256.339844 103.140625 254.683594 101.128906 Z M 179.296875 187.519531 C 177.714844 186.007812 176.203125 184.460938 174.90625 182.699219 C 174.292969 181.835938 173.71875 180.9375 173.574219 179.859375 C 173.648438 182.699219 176.742188 185.902344 178.648438 187.914062 C 178.863281 188.132812 179.117188 188.382812 179.117188 188.707031 C 179.152344 188.886719 179.007812 188.996094 178.902344 189.101562 L 178.613281 189.390625 C 175.410156 192.589844 172.242188 195.828125 169.292969 199.28125 C 172.710938 196.296875 175.984375 193.167969 179.1875 189.964844 C 179.1875 189.964844 179.476562 189.679688 179.476562 189.679688 C 180.160156 189.066406 179.90625 188.058594 179.296875 187.519531 Z M 244.753906 86.308594 C 258.210938 99.761719 263.679688 107.996094 263.246094 109.542969 L 263.246094 109.582031 L 262.132812 110.695312 L 262.023438 110.40625 C 261.414062 108.71875 259.902344 106.378906 257.417969 103.214844 C 254 98.828125 249 93.324219 243.347656 87.675781 C 237.699219 82.03125 232.195312 77.03125 227.804688 73.613281 C 224.636719 71.132812 222.296875 69.65625 220.605469 69.011719 L 220.320312 68.902344 L 221.433594 67.789062 L 221.46875 67.789062 C 223.054688 67.390625 231.292969 72.859375 244.753906 86.308594 Z M 224.78125 69.621094 C 224.167969 69.226562 223.558594 68.867188 222.945312 68.578125 L 222.191406 69.335938 C 222.800781 69.65625 223.339844 69.980469 224.023438 70.414062 Z M 230.71875 74.007812 C 230.070312 73.46875 229.386719 72.929688 228.738281 72.425781 C 227.949219 71.816406 227.226562 71.3125 226.472656 70.738281 L 225.679688 71.527344 C 226.761719 72.320312 227.839844 73.148438 228.882812 73.972656 C 229.277344 73.6875 229.890625 73.722656 230.71875 74.007812 Z M 256.304688 101.199219 C 258.210938 103.539062 260.332031 106.234375 261.738281 108.824219 L 262.492188 108.070312 C 261.089844 105.335938 259.039062 102.820312 257.128906 100.375 Z M 252.777344 97.0625 C 253.566406 97.964844 254.324219 98.828125 255.042969 99.652344 L 255.871094 98.828125 C 255.402344 98.285156 254.9375 97.710938 254.394531 97.136719 C 253.890625 96.5625 253.386719 95.984375 252.847656 95.375 C 253.0625 96.09375 253.0625 96.632812 252.847656 96.992188 Z M 178.863281 181.835938 C 178.71875 181.691406 178.503906 181.691406 178.359375 181.835938 L 179.90625 183.886719 L 177.855469 182.339844 L 177.785156 182.414062 C 177.390625 182.808594 177.351562 183.492188 177.714844 183.921875 L 179.042969 185.433594 C 179.476562 185.902344 180.195312 185.9375 180.664062 185.46875 L 181.347656 184.785156 C 181.492188 184.640625 181.492188 184.425781 181.347656 184.28125 Z M 245.4375 85.625 C 240.46875 80.734375 235.359375 75.914062 229.820312 71.636719 C 228.632812 70.699219 227.15625 69.695312 225.894531 68.867188 C 225.609375 68.6875 224.347656 67.96875 223.988281 67.789062 C 224.386719 68.039062 225.429688 68.652344 225.859375 68.902344 C 227.082031 69.765625 228.558594 70.808594 229.710938 71.742188 C 235.179688 76.097656 240.253906 80.914062 245.183594 85.808594 C 250.507812 91.164062 255.726562 96.667969 260.332031 102.640625 C 261.375 104.042969 262.382812 105.480469 263.25 106.992188 C 262.421875 105.480469 261.449219 104.003906 260.40625 102.566406 C 255.941406 96.523438 250.726562 90.984375 245.4375 85.625 Z M 273.289062 99.511719 L 273.289062 99.546875 L 270.554688 102.28125 L 270.445312 101.992188 C 269.832031 100.300781 268.320312 97.964844 265.839844 94.796875 C 262.421875 90.445312 257.417969 84.945312 251.769531 79.296875 C 246.121094 73.648438 240.613281 68.652344 236.222656 65.234375 C 233.058594 62.753906 230.71875 61.277344 229.027344 60.628906 L 228.773438 60.523438 L 231.507812 57.789062 L 231.546875 57.789062 C 233.09375 57.355469 241.332031 62.824219 254.792969 76.277344 C 268.25 89.726562 273.71875 97.964844 273.289062 99.511719 Z M 232.410156 61.996094 L 234.820312 59.585938 C 234.207031 59.191406 233.597656 58.832031 232.984375 58.542969 L 230.574219 60.953125 C 231.222656 61.242188 231.761719 61.566406 232.410156 61.996094 Z M 241.691406 64.730469 C 240.722656 63.9375 239.75 63.148438 238.777344 62.390625 C 237.988281 61.78125 237.265625 61.277344 236.511719 60.703125 L 234.066406 63.148438 C 235.214844 63.976562 236.367188 64.839844 237.484375 65.738281 C 238.023438 64.117188 239.929688 64.15625 241.691406 64.730469 Z M 263.429688 91.273438 L 265.875 88.828125 C 265.40625 88.289062 264.9375 87.714844 264.398438 87.136719 C 263.679688 86.308594 262.851562 85.375 262.058594 84.511719 C 262.78125 86.707031 262.421875 87.820312 260.945312 88.503906 C 261.015625 88.574219 261.054688 88.648438 261.125 88.71875 C 261.953125 89.546875 262.707031 90.445312 263.429688 91.273438 Z M 272.53125 98.035156 C 271.128906 95.300781 269.078125 92.785156 267.171875 90.339844 L 264.722656 92.785156 C 264.976562 93.070312 265.226562 93.394531 265.441406 93.683594 C 267.097656 95.769531 268.933594 98.179688 270.15625 100.410156 Z M 251.375 79.800781 C 247.234375 75.699219 242.988281 71.707031 238.492188 67.96875 C 235.828125 65.738281 233.019531 63.578125 229.960938 61.890625 C 232.984375 63.617188 235.71875 65.84375 238.382812 68.109375 C 242.808594 71.886719 247.054688 75.878906 251.15625 79.980469 C 257.058594 85.988281 262.960938 92.101562 267.855469 98.96875 C 268.214844 99.472656 268.863281 100.625 269.222656 101.199219 C 268.863281 100.625 268.285156 99.511719 267.890625 98.933594 C 263.210938 91.957031 257.273438 85.84375 251.375 79.800781 Z M 248.890625 82.175781 C 262.347656 95.625 267.816406 103.863281 267.386719 105.410156 L 267.386719 105.445312 L 266.269531 106.558594 L 266.199219 106.273438 C 265.585938 104.582031 264.074219 102.242188 261.59375 99.078125 C 258.175781 94.691406 253.171875 89.1875 247.523438 83.539062 C 241.875 77.894531 236.367188 72.894531 231.976562 69.476562 C 228.8125 66.996094 226.472656 65.523438 224.78125 64.875 L 224.492188 64.765625 L 225.609375 63.652344 L 225.644531 63.652344 C 227.191406 63.253906 235.433594 68.722656 248.890625 82.175781 Z M 228.953125 65.484375 C 228.917969 65.484375 228.917969 65.449219 228.953125 65.484375 C 228.34375 65.089844 227.730469 64.730469 227.121094 64.441406 L 226.363281 65.199219 C 226.976562 65.523438 227.515625 65.84375 228.199219 66.277344 Z M 234.890625 69.875 C 234.207031 69.335938 233.523438 68.792969 232.878906 68.253906 C 232.085938 67.644531 231.367188 67.140625 230.609375 66.566406 L 229.820312 67.355469 C 230.933594 68.148438 232.011719 68.972656 233.058594 69.835938 C 233.417969 69.550781 233.992188 69.550781 234.890625 69.875 Z M 260.441406 97.027344 C 262.347656 99.367188 264.472656 102.0625 265.875 104.652344 L 266.628906 103.898438 C 265.226562 101.164062 263.175781 98.648438 261.269531 96.199219 Z M 256.878906 92.890625 C 257.671875 93.792969 258.425781 94.691406 259.183594 95.519531 L 260.007812 94.691406 C 259.542969 94.152344 259.074219 93.574219 258.535156 93 C 258.03125 92.425781 257.527344 91.847656 256.949219 91.238281 C 257.238281 92.027344 257.203125 92.605469 256.878906 92.890625 Z M 246.984375 83.9375 C 241.980469 79.007812 236.835938 74.191406 231.292969 69.875 C 229.421875 68.472656 227.515625 67.066406 225.429688 66.023438 C 227.515625 67.105469 229.386719 68.542969 231.222656 69.980469 C 236.691406 74.371094 241.800781 79.1875 246.765625 84.152344 C 251.734375 89.117188 256.554688 94.222656 260.945312 99.726562 C 262.382812 101.558594 263.824219 103.429688 264.9375 105.480469 C 263.859375 103.394531 262.492188 101.488281 261.054688 99.617188 C 256.769531 94.078125 251.949219 88.9375 246.984375 83.9375 Z M 157.957031 159.140625 C 158.210938 159.824219 157.203125 160.328125 156.554688 160.078125 C 148.996094 156.949219 140.722656 157.882812 133.882812 162.8125 C 132.625 163.710938 130.898438 163.566406 129.78125 162.453125 L 141.621094 150.617188 C 141.726562 150.511719 141.945312 150.292969 142.414062 150.4375 C 142.664062 150.511719 142.878906 150.652344 143.097656 150.835938 C 144.140625 151.914062 148.53125 156.300781 151.011719 156.300781 C 155.65625 156.300781 172.460938 144.433594 172.460938 144.433594 C 172.460938 144.433594 168.644531 147.453125 159.359375 155.1875 C 158.535156 155.90625 157.488281 157.992188 157.957031 159.140625 Z M 144.859375 154.179688 C 144.425781 153.601562 143.996094 153.027344 143.527344 152.488281 C 143.277344 152.199219 142.988281 151.839844 142.554688 151.734375 C 142.125 151.625 141.585938 151.734375 141.261719 152.09375 C 140.21875 153.0625 139.210938 154.070312 138.203125 155.113281 C 136.1875 157.164062 134.207031 159.25 132.371094 161.480469 C 135.683594 158.746094 138.777344 155.691406 141.726562 152.597656 C 141.980469 152.308594 142.484375 152.273438 142.773438 152.523438 L 143.167969 152.847656 C 143.742188 153.316406 144.285156 153.785156 144.859375 154.179688 Z M 128.738281 200.144531 C 125.714844 196.621094 123.84375 192.484375 123.125 187.84375 C 122.835938 186.046875 122.117188 184.101562 120.929688 182.125 L 117.726562 177.953125 L 117.257812 177.414062 C 116.898438 177.015625 116.753906 176.585938 116.792969 176.15625 C 116.863281 175.183594 117.835938 174.390625 117.871094 174.355469 L 117.941406 174.285156 L 126.148438 166.082031 C 126.902344 165.328125 128.164062 165.328125 128.917969 166.121094 C 129.277344 166.480469 129.3125 167.019531 128.988281 167.378906 C 116.683594 181.40625 128.738281 200.144531 128.738281 200.144531 Z M 126.578125 167.054688 C 124.132812 169.25 121.722656 171.550781 119.347656 173.816406 C 119.347656 173.816406 118.625 174.5 118.625 174.5 C 118.410156 174.75 118.085938 175.003906 117.871094 175.292969 C 117.296875 176.15625 117.617188 177.378906 118.445312 177.878906 C 119.128906 178.347656 120.28125 179.390625 119.167969 177.878906 C 118.984375 177.628906 118.734375 177.339844 118.589844 177.125 C 118.230469 176.550781 118.300781 175.832031 118.769531 175.328125 C 118.984375 175.113281 119.5625 174.5 119.8125 174.25 C 122.082031 171.945312 124.421875 169.5 126.578125 167.054688 Z M 117.511719 179.605469 C 117.113281 179.175781 116.429688 179.140625 116.035156 179.535156 L 115.964844 179.605469 L 117.546875 181.691406 L 115.460938 180.109375 L 115.386719 180.183594 C 115.242188 180.328125 115.242188 180.542969 115.386719 180.648438 L 117.691406 182.953125 C 117.835938 183.097656 118.050781 183.097656 118.160156 182.953125 L 118.699219 182.414062 C 119.058594 182.054688 119.09375 181.441406 118.734375 181.011719 Z M 151.191406 213.273438 L 149.71875 211.976562 C 149.285156 211.617188 148.671875 211.617188 148.3125 211.976562 L 149.824219 213.957031 L 147.847656 212.445312 L 147.773438 212.515625 C 147.628906 212.660156 147.628906 212.875 147.773438 213.019531 L 150.183594 215.429688 C 150.328125 215.574219 150.542969 215.574219 150.6875 215.429688 L 151.300781 214.816406 C 151.695312 214.386719 151.660156 213.703125 151.191406 213.273438 Z M 145.363281 150.222656 C 144.894531 150.691406 144.929688 151.410156 145.363281 151.804688 L 146.839844 153.101562 C 147.269531 153.460938 147.917969 153.421875 148.3125 153.027344 L 148.890625 152.453125 C 149.035156 152.308594 149.035156 152.09375 148.890625 151.949219 L 146.515625 149.574219 C 146.371094 149.429688 146.15625 149.429688 146.011719 149.574219 L 147.59375 151.660156 L 145.507812 150.078125 Z M 185.414062 156.695312 C 185.558594 156.914062 185.738281 157.128906 185.882812 157.34375 C 180.449219 163.675781 176.203125 168.746094 175.839844 169.140625 C 175.660156 169.429688 174.402344 171.40625 171.957031 171.695312 C 171.199219 171.765625 170.445312 171.695312 169.652344 171.441406 C 168.96875 171.226562 168.355469 171.910156 168.679688 172.558594 C 172.78125 180.867188 171.558594 191.152344 165.046875 198.308594 C 164.792969 198.597656 164.792969 198.992188 165.046875 199.246094 L 167.710938 201.90625 L 164.832031 199.890625 C 164.363281 199.570312 163.75 199.605469 163.355469 199.964844 C 154.574219 207.804688 141.1875 207.734375 132.480469 199.785156 C 132.191406 199.53125 131.796875 199.53125 131.542969 199.785156 L 129.53125 201.796875 L 130.96875 199.570312 C 131.257812 199.136719 131.222656 198.527344 130.859375 198.128906 C 122.980469 189.355469 123.050781 175.9375 131.003906 167.234375 C 131.257812 166.945312 131.257812 166.550781 131.003906 166.300781 L 128.484375 163.78125 L 131.257812 165.6875 C 131.726562 166.011719 132.335938 165.976562 132.730469 165.617188 C 139.75 159.359375 149.679688 158.136719 157.847656 161.949219 C 158.640625 162.308594 159.503906 161.625 159.289062 160.761719 C 159.144531 160.113281 159.074219 159.464844 159.144531 158.855469 C 159.398438 156.410156 161.375 155.148438 161.699219 154.96875 C 162.132812 154.609375 167.78125 149.863281 174.617188 144 C 174.796875 144.179688 174.976562 144.394531 175.121094 144.574219 C 168.03125 150.652344 162.238281 155.507812 162.167969 155.617188 L 162.09375 155.652344 C 162.058594 155.652344 160.152344 156.769531 159.902344 158.960938 C 159.683594 160.90625 160.800781 163.097656 163.210938 165.472656 C 163.570312 165.796875 163.929688 166.121094 164.253906 166.445312 C 164.253906 166.445312 164.289062 166.480469 164.328125 166.480469 C 164.363281 166.480469 164.363281 166.515625 164.363281 166.550781 C 164.6875 166.910156 165.011719 167.234375 165.335938 167.59375 C 167.746094 170.003906 169.941406 171.117188 171.847656 170.902344 C 174.042969 170.6875 175.15625 168.746094 175.15625 168.710938 L 175.195312 168.636719 C 175.300781 168.566406 179.726562 163.277344 185.414062 156.695312 Z M 164.757812 168.097656 C 164.433594 167.773438 164.074219 167.378906 163.75 167.019531 C 163.355469 166.660156 162.996094 166.335938 162.671875 166.011719 C 153.785156 158.242188 140.179688 158.710938 131.867188 167.414062 C 123.84375 175.832031 123.699219 189.175781 131.507812 197.734375 C 140.109375 207.195312 154.828125 207.445312 163.75 198.488281 C 172.097656 190.179688 172.421875 176.835938 164.757812 168.097656 Z M 162.457031 197.195312 C 160.082031 199.351562 157.273438 200.898438 154.25 201.835938 C 157.203125 200.828125 159.902344 199.101562 161.988281 196.726562 C 156.265625 201.941406 147.738281 203.597656 140.539062 200.71875 C 138.167969 199.785156 135.933594 198.417969 133.992188 196.726562 C 135.71875 198.667969 137.878906 200.25 140.289062 201.292969 C 140.757812 201.511719 141.226562 201.691406 141.691406 201.871094 C 141.226562 201.726562 140.722656 201.546875 140.253906 201.367188 C 137.804688 200.394531 135.503906 198.992188 133.488281 197.230469 C 135.289062 199.246094 137.519531 200.863281 140 201.941406 C 140.46875 202.15625 140.9375 202.339844 141.40625 202.519531 C 140.9375 202.375 140.46875 202.195312 139.964844 202.015625 C 137.410156 201.007812 135.070312 199.570312 132.984375 197.734375 C 134.820312 199.785156 137.160156 201.476562 139.714844 202.589844 C 147.414062 206.078125 157.238281 204.101562 162.851562 197.734375 C 160.441406 199.964844 157.527344 201.582031 154.429688 202.519531 C 157.5625 201.402344 160.332031 199.640625 162.457031 197.195312 Z M 161.089844 169.679688 C 168.320312 176.910156 168.320312 188.632812 161.089844 195.828125 C 153.855469 203.058594 142.125 203.058594 134.925781 195.828125 C 127.730469 188.597656 127.695312 176.875 134.925781 169.679688 C 142.125 162.453125 153.855469 162.453125 161.089844 169.679688 Z M 160.1875 170.578125 C 153.460938 163.855469 142.519531 163.855469 135.792969 170.578125 C 129.0625 177.304688 129.0625 188.238281 135.792969 194.964844 C 142.519531 201.691406 153.460938 201.691406 160.1875 194.964844 C 166.917969 188.203125 166.917969 177.304688 160.1875 170.578125 Z M 133.523438 168.277344 C 135.898438 166.121094 138.707031 164.574219 141.726562 163.636719 C 138.777344 164.644531 136.078125 166.371094 133.992188 168.746094 C 139.714844 163.53125 148.242188 161.875 155.4375 164.753906 C 157.8125 165.6875 160.042969 167.054688 161.988281 168.746094 C 160.261719 166.804688 158.101562 165.21875 155.691406 164.175781 C 155.222656 163.960938 154.753906 163.78125 154.285156 163.601562 C 154.753906 163.746094 155.257812 163.925781 155.726562 164.105469 C 158.171875 165.078125 160.476562 166.480469 162.492188 168.242188 C 160.691406 166.226562 158.460938 164.609375 155.976562 163.53125 C 155.511719 163.3125 155.042969 163.132812 154.574219 162.953125 C 155.042969 163.097656 155.511719 163.277344 156.015625 163.457031 C 158.570312 164.464844 160.910156 165.902344 162.996094 167.738281 C 161.160156 165.6875 158.820312 163.996094 156.265625 162.882812 C 148.566406 159.394531 138.742188 161.371094 133.128906 167.738281 C 135.539062 165.507812 138.453125 163.890625 141.546875 162.953125 C 138.453125 164.070312 135.683594 165.867188 133.523438 168.277344 Z M 156.914062 211.328125 C 156.050781 212.15625 154.863281 213.773438 153.640625 212.589844 C 153.496094 212.410156 149.25 209.171875 148.925781 208.917969 C 147.664062 208.164062 146.335938 207.554688 144.929688 207.121094 C 143.5625 206.691406 142.089844 206.617188 140.722656 206.257812 C 137.984375 205.539062 135.324219 204.53125 132.804688 203.199219 C 135 205.070312 137.699219 206.402344 140.539062 207.011719 C 141.910156 207.375 143.347656 207.445312 144.714844 207.875 C 146.046875 208.273438 147.304688 208.882812 148.53125 209.601562 C 148.492188 209.566406 153.28125 213.234375 153.136719 213.199219 C 154.285156 214.351562 155.90625 213.667969 156.804688 212.550781 C 156.949219 212.410156 157.347656 212.011719 157.488281 211.867188 C 158.136719 211.1875 161.59375 207.875 162.09375 207.195312 C 162.921875 206.222656 163.859375 205.144531 164.652344 204.171875 C 163.320312 205.289062 161.914062 206.4375 160.65625 207.625 C 160.65625 207.589844 156.914062 211.328125 156.914062 211.328125 Z M 228.703125 149.539062 C 228.558594 149.394531 228.34375 149.394531 228.199219 149.539062 L 225.824219 151.914062 C 225.679688 152.058594 225.679688 152.273438 225.824219 152.417969 L 226.398438 152.992188 C 226.796875 153.386719 227.445312 153.421875 227.875 153.0625 L 229.351562 151.769531 C 229.820312 151.375 229.820312 150.652344 229.351562 150.1875 L 229.171875 150.007812 L 227.082031 151.589844 Z M 239.859375 195.828125 C 232.625 203.058594 220.894531 203.058594 213.699219 195.828125 C 206.464844 188.597656 206.464844 176.875 213.699219 169.679688 C 220.929688 162.449219 232.660156 162.449219 239.859375 169.679688 C 247.089844 176.910156 247.089844 188.597656 239.859375 195.828125 Z M 238.957031 170.578125 C 232.230469 163.855469 221.289062 163.855469 214.5625 170.578125 C 207.832031 177.304688 207.832031 188.238281 214.5625 194.964844 C 221.289062 201.691406 232.230469 201.691406 238.957031 194.964844 C 245.6875 188.203125 245.6875 177.304688 238.957031 170.578125 Z M 220.210938 163.027344 C 219.742188 163.207031 219.273438 163.386719 218.808594 163.601562 C 216.324219 164.679688 214.09375 166.300781 212.292969 168.3125 C 214.308594 166.515625 216.578125 165.113281 219.058594 164.175781 C 219.527344 163.996094 219.996094 163.816406 220.5 163.675781 C 220.03125 163.855469 219.5625 164.035156 219.09375 164.25 C 216.683594 165.292969 214.523438 166.875 212.796875 168.816406 C 214.742188 167.089844 216.972656 165.722656 219.347656 164.824219 C 226.542969 161.949219 235.070312 163.636719 240.792969 168.816406 C 238.707031 166.445312 236.007812 164.71875 233.058594 163.710938 C 236.078125 164.644531 238.886719 166.191406 241.261719 168.351562 C 239.136719 165.902344 236.332031 164.140625 233.308594 163.097656 C 236.402344 164.070312 239.320312 165.652344 241.730469 167.882812 C 236.117188 161.515625 226.292969 159.539062 218.589844 163.027344 C 216 164.140625 213.699219 165.832031 211.863281 167.882812 C 213.914062 166.046875 216.289062 164.574219 218.84375 163.601562 C 219.273438 163.351562 219.742188 163.171875 220.210938 163.027344 Z M 233.308594 202.480469 C 233.777344 202.300781 234.246094 202.121094 234.710938 201.90625 C 237.195312 200.828125 239.425781 199.207031 241.226562 197.195312 C 239.210938 198.992188 236.945312 200.394531 234.460938 201.332031 C 233.992188 201.511719 233.523438 201.691406 233.019531 201.835938 C 233.488281 201.65625 233.957031 201.476562 234.425781 201.257812 C 236.835938 200.214844 238.996094 198.632812 240.722656 196.691406 C 238.777344 198.417969 236.546875 199.785156 234.171875 200.683594 C 226.976562 203.5625 218.449219 201.871094 212.726562 196.691406 C 214.8125 199.066406 217.511719 200.792969 220.460938 201.796875 C 217.441406 200.863281 214.632812 199.316406 212.257812 197.160156 C 214.382812 199.605469 217.1875 201.367188 220.210938 202.410156 C 217.117188 201.4375 214.203125 199.855469 211.789062 197.625 C 217.402344 203.992188 227.226562 205.96875 234.929688 202.480469 C 237.519531 201.367188 239.820312 199.675781 241.65625 197.625 C 239.605469 199.460938 237.230469 200.933594 234.675781 201.90625 C 234.246094 202.15625 233.777344 202.339844 233.308594 202.480469 Z M 229.820312 207.121094 C 228.414062 207.554688 227.082031 208.164062 225.824219 208.917969 C 225.5 209.171875 221.21875 212.410156 221.109375 212.589844 C 219.886719 213.773438 218.664062 212.15625 217.835938 211.328125 C 217.835938 211.328125 214.128906 207.589844 214.128906 207.589844 C 212.871094 206.402344 211.429688 205.25 210.136719 204.136719 C 210.925781 205.105469 211.863281 206.1875 212.691406 207.15625 C 213.195312 207.839844 216.613281 211.148438 217.296875 211.832031 C 217.441406 211.976562 217.835938 212.371094 217.980469 212.515625 C 218.878906 213.59375 220.5 214.316406 221.648438 213.164062 C 221.542969 213.199219 226.328125 209.566406 226.257812 209.566406 C 227.480469 208.847656 228.738281 208.238281 230.070312 207.839844 C 231.4375 207.410156 232.878906 207.335938 234.246094 206.976562 C 237.085938 206.367188 239.75 205.035156 241.980469 203.164062 C 239.460938 204.496094 236.835938 205.503906 234.066406 206.222656 C 232.660156 206.617188 231.222656 206.691406 229.820312 207.121094 Z M 226.941406 212.445312 L 224.960938 213.957031 L 226.472656 211.976562 C 226.074219 211.617188 225.464844 211.582031 225.070312 211.976562 L 223.59375 213.273438 C 223.125 213.667969 223.089844 214.386719 223.519531 214.78125 L 224.132812 215.394531 C 224.277344 215.539062 224.492188 215.539062 224.636719 215.394531 L 227.046875 212.984375 C 227.191406 212.839844 227.191406 212.625 227.046875 212.480469 Z M 195.742188 185.433594 L 197.074219 183.921875 C 197.46875 183.492188 197.433594 182.84375 197 182.414062 L 196.929688 182.339844 L 194.878906 183.886719 L 196.425781 181.835938 C 196.28125 181.691406 196.066406 181.691406 195.921875 181.835938 L 193.472656 184.28125 C 193.332031 184.425781 193.332031 184.640625 193.472656 184.785156 L 194.15625 185.46875 C 194.589844 185.9375 195.308594 185.902344 195.742188 185.433594 Z M 216.792969 159.140625 C 217.261719 157.992188 216.214844 155.90625 215.425781 155.257812 C 206.140625 147.523438 202.328125 144.503906 202.328125 144.503906 C 202.328125 144.503906 219.132812 156.371094 223.773438 156.371094 C 226.292969 156.371094 230.683594 151.984375 231.691406 150.90625 C 231.871094 150.726562 232.085938 150.546875 232.375 150.511719 C 232.839844 150.402344 233.058594 150.582031 233.164062 150.691406 L 245.003906 162.523438 C 243.925781 163.601562 242.160156 163.78125 240.902344 162.882812 C 234.101562 157.957031 225.824219 157.019531 218.230469 160.148438 C 217.546875 160.328125 216.539062 159.789062 216.792969 159.140625 Z M 229.890625 154.179688 C 230.464844 153.746094 231.042969 153.316406 231.582031 152.847656 L 231.976562 152.523438 C 232.265625 152.273438 232.769531 152.308594 233.019531 152.597656 C 236.007812 155.726562 239.066406 158.746094 242.378906 161.480469 C 240.542969 159.25 238.5625 157.164062 236.546875 155.113281 C 235.539062 154.105469 234.496094 153.101562 233.488281 152.09375 C 233.164062 151.769531 232.625 151.625 232.195312 151.734375 C 231.761719 151.804688 231.472656 152.164062 231.222656 152.488281 C 230.753906 153.0625 230.320312 153.601562 229.890625 154.179688 Z M 196.101562 189.355469 L 195.8125 189.066406 C 195.707031 188.957031 195.5625 188.886719 195.597656 188.671875 C 195.632812 188.347656 195.847656 188.09375 196.066406 187.878906 C 197.9375 185.902344 201.066406 182.699219 201.140625 179.824219 C 200.996094 180.902344 200.417969 181.800781 199.808594 182.664062 C 198.511719 184.425781 197 186.007812 195.417969 187.484375 C 194.839844 188.023438 194.554688 189.03125 195.273438 189.570312 C 195.273438 189.570312 195.5625 189.859375 195.5625 189.859375 C 198.765625 193.058594 202.003906 196.222656 205.457031 199.171875 C 202.46875 195.828125 199.339844 192.554688 196.101562 189.355469 Z M 178.289062 93.144531 L 178.792969 93.648438 C 174.007812 88.863281 132.550781 130.296875 137.375 135.082031 L 136.871094 134.578125 C 135.609375 133.320312 137.554688 129.507812 141.226562 124.652344 L 125.96875 109.402344 C 124.167969 107.601562 124.058594 104.6875 125.714844 102.78125 C 132.085938 95.375 139.136719 88.324219 146.660156 81.851562 C 148.566406 80.195312 151.480469 80.304688 153.28125 82.101562 L 168.574219 97.386719 C 173.285156 93.792969 177.027344 91.921875 178.289062 93.144531 Z M 167.925781 97.855469 L 152.703125 82.640625 C 151.191406 81.132812 148.746094 81.023438 147.125 82.425781 C 139.605469 88.863281 132.589844 95.878906 126.253906 103.285156 C 124.851562 104.90625 124.960938 107.351562 126.472656 108.859375 L 141.65625 124.039062 C 148.167969 115.585938 159.46875 104.292969 167.925781 97.855469 Z M 117.332031 103.214844 C 114.847656 106.378906 113.371094 108.71875 112.726562 110.40625 L 112.617188 110.695312 L 111.5 109.582031 L 111.5 109.542969 C 111.070312 107.996094 116.539062 99.761719 129.996094 86.308594 C 143.457031 72.859375 151.695312 67.390625 153.242188 67.824219 L 153.28125 67.824219 L 154.394531 68.9375 L 154.105469 69.046875 C 152.414062 69.65625 150.078125 71.167969 146.910156 73.648438 C 142.519531 77.066406 137.015625 82.066406 131.363281 87.714844 C 125.714844 93.359375 120.75 98.863281 117.332031 103.214844 Z M 149.96875 69.621094 L 150.761719 70.414062 C 151.410156 69.980469 151.949219 69.65625 152.597656 69.335938 L 151.839844 68.578125 C 151.191406 68.867188 150.582031 69.226562 149.96875 69.621094 Z M 144.03125 74.007812 C 144.859375 73.757812 145.507812 73.6875 145.867188 73.972656 C 146.910156 73.148438 147.988281 72.320312 149.070312 71.527344 L 148.277344 70.738281 C 147.484375 71.277344 146.765625 71.816406 146.011719 72.425781 C 145.363281 72.929688 144.679688 73.46875 144.03125 74.007812 Z M 120.390625 97.136719 C 119.886719 97.710938 119.382812 98.285156 118.914062 98.828125 L 119.742188 99.652344 C 120.460938 98.828125 121.21875 97.964844 122.007812 97.0625 L 121.972656 97.027344 C 121.757812 96.667969 121.757812 96.128906 121.972656 95.410156 C 121.359375 95.984375 120.859375 96.597656 120.390625 97.136719 Z M 113.011719 108.824219 C 114.417969 106.234375 116.539062 103.539062 118.445312 101.199219 L 117.65625 100.410156 C 115.710938 102.820312 113.695312 105.371094 112.292969 108.105469 Z M 243.816406 199.53125 L 245.253906 201.761719 L 243.242188 199.75 C 242.988281 199.496094 242.558594 199.496094 242.304688 199.75 C 233.597656 207.695312 220.210938 207.769531 211.429688 199.929688 C 211.035156 199.570312 210.386719 199.53125 209.953125 199.855469 L 207.078125 201.871094 L 209.738281 199.207031 C 209.992188 198.957031 209.992188 198.527344 209.738281 198.273438 C 203.191406 191.117188 202.003906 180.828125 206.105469 172.523438 C 206.429688 171.875 205.816406 171.191406 205.132812 171.40625 C 204.339844 171.660156 203.550781 171.730469 202.832031 171.660156 C 200.382812 171.40625 199.125 169.429688 198.945312 169.105469 C 198.296875 168.351562 184.40625 151.804688 174.332031 140.65625 C 164.039062 129.289062 156.121094 120.371094 155.976562 120.226562 C 155.976562 120.226562 164.613281 128.75 174.90625 140.117188 C 185.199219 151.480469 199.449219 168.421875 199.589844 168.601562 L 199.628906 168.671875 C 199.628906 168.710938 200.742188 170.617188 202.9375 170.867188 C 204.882812 171.082031 207.078125 169.96875 209.453125 167.558594 C 209.773438 167.199219 210.097656 166.839844 210.421875 166.515625 C 210.421875 166.515625 210.457031 166.480469 210.457031 166.445312 C 210.457031 166.445312 210.496094 166.40625 210.53125 166.40625 C 210.890625 166.082031 211.214844 165.761719 211.574219 165.4375 C 213.984375 163.027344 215.101562 160.832031 214.886719 158.925781 C 214.667969 156.734375 212.726562 155.617188 212.691406 155.617188 L 212.617188 155.582031 C 212.4375 155.4375 195.488281 141.230469 184.117188 130.910156 C 172.746094 120.621094 164.253906 112.027344 164.253906 112.027344 C 164.398438 112.171875 173.285156 120.046875 184.65625 130.332031 C 195.8125 140.441406 212.367188 154.285156 213.121094 154.933594 C 213.410156 155.113281 215.390625 156.371094 215.675781 158.820312 C 215.75 159.429688 215.710938 160.078125 215.53125 160.726562 C 215.316406 161.589844 216.179688 162.308594 216.972656 161.910156 C 225.140625 158.097656 235.070312 159.320312 242.089844 165.582031 C 242.484375 165.941406 243.097656 165.976562 243.566406 165.652344 L 246.335938 163.746094 L 243.816406 166.261719 C 243.566406 166.515625 243.566406 166.945312 243.816406 167.199219 C 251.769531 175.902344 251.839844 189.316406 243.960938 198.09375 C 243.566406 198.488281 243.527344 199.101562 243.816406 199.53125 Z M 243.242188 197.734375 C 251.050781 189.136719 250.90625 175.792969 242.878906 167.414062 C 234.570312 158.710938 220.964844 158.242188 212.078125 166.011719 C 211.753906 166.335938 211.359375 166.695312 211 167.019531 C 210.640625 167.414062 210.316406 167.773438 209.992188 168.097656 C 202.328125 176.835938 202.6875 190.179688 211 198.488281 C 219.957031 207.445312 234.640625 207.15625 243.242188 197.734375 Z M 127.980469 84.152344 C 132.949219 79.1875 138.058594 74.371094 143.5625 69.980469 C 145.398438 68.542969 147.269531 67.105469 149.355469 66.023438 C 147.269531 67.066406 145.363281 68.472656 143.492188 69.875 C 137.914062 74.191406 132.769531 79.007812 127.800781 83.9375 C 122.835938 88.9375 118.015625 94.078125 113.695312 99.617188 C 112.292969 101.488281 110.890625 103.394531 109.808594 105.480469 C 110.925781 103.429688 112.363281 101.558594 113.804688 99.726562 C 118.195312 94.222656 123.015625 89.117188 127.980469 84.152344 Z M 120.210938 101.273438 C 127.800781 92.425781 136.078125 84.1875 144.894531 76.597656 C 146.980469 74.835938 149.214844 73.074219 151.445312 71.527344 C 151.949219 71.203125 152.847656 70.664062 153.316406 70.414062 C 152.957031 70.59375 151.695312 71.347656 151.410156 71.492188 C 149.105469 73.003906 146.839844 74.691406 144.75 76.457031 C 135.828125 83.9375 127.515625 92.246094 120.03125 101.164062 C 118.375 103.140625 116.71875 105.300781 115.316406 107.457031 C 114.921875 108.035156 114.34375 109.113281 113.984375 109.722656 C 114.34375 109.148438 114.992188 107.996094 115.351562 107.496094 C 116.863281 105.335938 118.554688 103.25 120.210938 101.273438 Z M 259.289062 180.109375 L 257.203125 181.691406 L 258.785156 179.605469 L 258.714844 179.535156 C 258.28125 179.105469 257.597656 179.140625 257.238281 179.605469 L 255.980469 181.046875 C 255.621094 181.441406 255.621094 182.054688 256.015625 182.449219 L 256.554688 182.988281 C 256.699219 183.132812 256.914062 183.132812 257.023438 182.988281 L 259.324219 180.6875 C 259.46875 180.542969 259.46875 180.328125 259.324219 180.21875 Z M 113.15625 99.078125 C 110.675781 102.242188 109.199219 104.582031 108.550781 106.273438 L 108.441406 106.558594 L 107.328125 105.445312 L 107.328125 105.410156 C 106.894531 103.863281 112.363281 95.625 125.824219 82.175781 C 139.28125 68.722656 147.523438 63.253906 149.070312 63.6875 L 149.105469 63.6875 L 150.222656 64.800781 L 149.933594 64.910156 C 148.242188 65.523438 145.902344 67.03125 142.734375 69.515625 C 138.347656 72.929688 132.839844 77.929688 127.191406 83.578125 C 121.542969 89.222656 116.609375 94.691406 113.15625 99.078125 Z M 145.832031 65.484375 L 146.621094 66.277344 C 147.269531 65.84375 147.808594 65.523438 148.457031 65.199219 L 147.703125 64.441406 C 147.019531 64.730469 146.441406 65.089844 145.832031 65.484375 C 145.832031 65.449219 145.832031 65.484375 145.832031 65.484375 Z M 139.855469 69.875 C 140.757812 69.550781 141.367188 69.550781 141.691406 69.835938 C 142.773438 68.972656 143.851562 68.148438 144.929688 67.355469 L 144.140625 66.566406 C 143.347656 67.105469 142.628906 67.644531 141.871094 68.253906 C 141.1875 68.792969 140.503906 69.335938 139.855469 69.875 Z M 116.214844 93 C 115.710938 93.574219 115.207031 94.152344 114.738281 94.691406 L 115.566406 95.519531 C 116.289062 94.65625 117.042969 93.792969 117.871094 92.890625 C 117.582031 92.605469 117.546875 92.027344 117.796875 91.238281 C 117.257812 91.847656 116.71875 92.425781 116.214844 93 Z M 108.875 104.652344 C 110.277344 102.0625 112.402344 99.367188 114.308594 97.027344 L 113.515625 96.238281 C 111.574219 98.648438 109.558594 101.199219 108.15625 103.933594 Z M 135.792969 133.859375 L 115.171875 113.25 L 115.171875 113.214844 C 114.738281 111.667969 120.210938 103.429688 133.667969 89.980469 C 147.125 76.527344 155.367188 71.058594 156.914062 71.492188 L 156.949219 71.492188 L 177.570312 92.101562 L 176.992188 92.027344 C 176.023438 91.921875 173.828125 92.53125 168.859375 96.273438 L 168.71875 96.378906 L 153.421875 81.09375 C 151.625 79.296875 148.671875 79.1875 146.730469 80.878906 C 138.777344 87.714844 131.363281 95.121094 124.671875 102.925781 C 123.015625 104.867188 123.089844 107.816406 124.921875 109.617188 L 140.179688 124.867188 L 140.074219 125.011719 C 136.257812 130.082031 135.574219 132.347656 135.71875 133.320312 Z M 153.640625 73.253906 L 173.25 92.855469 C 173.96875 92.460938 174.652344 92.136719 175.230469 91.921875 L 155.511719 72.210938 C 154.828125 72.535156 154.214844 72.894531 153.640625 73.253906 Z M 147.558594 77.75 C 148.601562 77.460938 149.394531 77.425781 149.789062 77.894531 C 149.789062 77.894531 151.371094 79.476562 151.371094 79.476562 C 152.882812 79.046875 167.421875 94.871094 168.753906 95.839844 C 169.652344 95.15625 170.589844 94.511719 171.488281 93.933594 L 151.949219 74.40625 C 151.15625 74.945312 150.4375 75.484375 149.679688 76.097656 C 148.960938 76.636719 148.277344 77.175781 147.558594 77.75 Z M 124.023438 100.804688 C 123.519531 101.378906 123.015625 101.957031 122.546875 102.496094 L 123.699219 103.644531 C 123.808594 103.464844 123.878906 103.285156 124.023438 103.140625 C 124.5625 102.386719 125.246094 101.703125 125.859375 100.949219 C 125.425781 100.589844 125.425781 99.871094 125.679688 98.933594 C 125.105469 99.582031 124.5625 100.191406 124.023438 100.804688 Z M 135.648438 131.449219 C 136.582031 129.074219 138.128906 126.953125 139.640625 124.902344 L 124.636719 109.867188 C 123.59375 108.824219 123.015625 107.316406 123.125 105.839844 L 121.324219 104.042969 C 119.382812 106.453125 117.367188 109.003906 115.964844 111.738281 Z M 121.289062 102.316406 C 128.882812 93.46875 137.160156 85.230469 145.976562 77.640625 C 148.0625 75.878906 150.292969 74.117188 152.523438 72.570312 C 153.027344 72.246094 153.925781 71.707031 154.394531 71.457031 C 154.035156 71.636719 152.777344 72.390625 152.488281 72.535156 C 150.183594 74.046875 147.917969 75.734375 145.832031 77.5 C 136.90625 84.980469 128.59375 93.289062 121.109375 102.207031 C 119.453125 104.183594 117.796875 106.34375 116.394531 108.5 C 116 109.078125 115.425781 110.15625 115.0625 110.765625 C 115.425781 110.191406 116.070312 109.039062 116.429688 108.539062 C 117.90625 106.378906 119.597656 104.292969 121.289062 102.316406 Z M 129.53125 85.808594 C 134.496094 80.914062 139.570312 76.097656 145.003906 71.742188 C 146.191406 70.808594 147.628906 69.730469 148.851562 68.902344 C 149.285156 68.652344 150.328125 68.003906 150.722656 67.789062 C 150.402344 68.003906 149.140625 68.6875 148.816406 68.867188 C 147.558594 69.695312 146.082031 70.699219 144.894531 71.636719 C 139.351562 75.914062 134.28125 80.699219 129.277344 85.625 C 123.988281 91.023438 118.769531 96.523438 114.238281 102.601562 C 113.191406 104.003906 112.257812 105.480469 111.394531 107.027344 C 112.257812 105.515625 113.265625 104.078125 114.308594 102.675781 C 119.023438 96.667969 124.203125 91.164062 129.53125 85.808594 Z M 207.867188 166.695312 L 211.359375 163.207031 C 211.539062 163.027344 211.324219 162.738281 211.105469 162.882812 C 199.699219 169.320312 190.8125 150.257812 158.316406 119.363281 L 200.203125 166.371094 C 202.21875 168.671875 205.746094 168.816406 207.867188 166.695312 Z M 136.367188 68.109375 C 139.03125 65.882812 141.765625 63.652344 144.789062 61.890625 C 141.726562 63.578125 138.921875 65.738281 136.257812 67.96875 C 131.761719 71.707031 127.515625 75.699219 123.375 79.800781 C 117.476562 85.84375 111.574219 91.957031 106.859375 98.96875 C 106.464844 99.511719 105.886719 100.660156 105.527344 101.234375 C 105.886719 100.660156 106.535156 99.511719 106.894531 99.007812 C 111.753906 92.101562 117.691406 86.023438 123.59375 80.015625 C 127.695312 75.878906 131.941406 71.886719 136.367188 68.109375 Z M 149.464844 96.597656 C 151.984375 99.113281 151.984375 103.25 149.464844 105.804688 C 146.945312 108.359375 142.808594 108.320312 140.253906 105.804688 C 137.734375 103.285156 137.734375 99.148438 140.253906 96.597656 C 142.808594 94.042969 146.945312 94.042969 149.464844 96.597656 Z M 140.503906 102.855469 C 140.792969 103.429688 141.1875 103.933594 141.800781 104.257812 C 140.648438 102.351562 140.613281 100.011719 141.800781 98.105469 C 141.226562 98.429688 140.792969 98.933594 140.503906 99.511719 C 140.683594 98.863281 140.972656 98.25 141.332031 97.640625 C 140.613281 98.070312 140.109375 98.71875 139.820312 99.472656 C 140.039062 98.683594 140.359375 97.890625 140.863281 97.171875 C 138.167969 98.898438 138.167969 103.429688 140.863281 105.15625 C 140.359375 104.4375 140.039062 103.683594 139.820312 102.890625 C 140.109375 103.644531 140.613281 104.292969 141.332031 104.726562 C 140.972656 104.078125 140.683594 103.503906 140.503906 102.855469 Z M 147.378906 103.683594 C 148.78125 102.28125 148.78125 100.050781 147.378906 98.648438 C 145.976562 97.242188 143.742188 97.242188 142.339844 98.648438 C 140.9375 100.050781 140.9375 102.28125 142.339844 103.683594 C 143.742188 105.085938 146.011719 105.085938 147.378906 103.683594 Z M 148.851562 97.171875 C 149.355469 97.890625 149.679688 98.648438 149.898438 99.472656 C 149.609375 98.71875 149.105469 98.070312 148.386719 97.640625 C 148.746094 98.25 149.035156 98.863281 149.214844 99.511719 C 148.925781 98.933594 148.53125 98.429688 147.917969 98.105469 C 149.070312 100.011719 149.105469 102.351562 147.917969 104.257812 C 148.492188 103.933594 148.925781 103.429688 149.214844 102.855469 C 149.035156 103.503906 148.746094 104.113281 148.386719 104.726562 C 149.105469 104.292969 149.609375 103.644531 149.898438 102.890625 C 149.679688 103.683594 149.355469 104.472656 148.851562 105.191406 C 151.550781 103.429688 151.550781 98.898438 148.851562 97.171875 Z M 151.949219 84.222656 L 166.019531 98.285156 C 158.535156 104.003906 148.890625 113.609375 143.132812 121.125 L 129.097656 107.097656 C 127.660156 105.660156 127.441406 103.394531 128.667969 101.992188 C 134.136719 95.519531 140.253906 89.402344 146.875 83.792969 C 148.242188 82.570312 150.472656 82.75 151.949219 84.222656 Z M 150.003906 96.019531 C 147.164062 93.179688 142.554688 93.179688 139.714844 96.019531 C 136.871094 98.863281 136.871094 103.464844 139.714844 106.308594 C 142.554688 109.148438 147.164062 109.148438 150.003906 106.308594 C 152.847656 103.503906 152.847656 98.863281 150.003906 96.019531 Z M 125.285156 81.453125 C 120.355469 86.453125 115.496094 91.5625 111.214844 97.136719 C 109.808594 99.007812 108.40625 100.914062 107.328125 103 C 108.441406 100.949219 109.882812 99.078125 111.320312 97.242188 C 115.710938 91.742188 120.535156 86.632812 125.5 81.671875 C 130.464844 76.707031 135.574219 71.886719 141.082031 67.535156 C 142.914062 66.097656 144.789062 64.660156 146.875 63.578125 C 144.789062 64.621094 142.878906 66.023438 141.007812 67.429688 C 135.429688 71.707031 130.285156 76.527344 125.285156 81.453125 Z M 257.058594 177.953125 L 253.855469 182.125 C 252.667969 184.101562 251.914062 186.046875 251.660156 187.84375 C 250.976562 192.484375 249.070312 196.621094 246.046875 200.144531 C 246.046875 200.144531 258.101562 181.40625 245.796875 167.378906 C 245.472656 167.019531 245.507812 166.445312 245.867188 166.121094 C 246.660156 165.328125 247.882812 165.328125 248.636719 166.082031 L 256.84375 174.285156 L 256.914062 174.355469 C 256.914062 174.355469 257.886719 175.183594 257.996094 176.15625 C 258.03125 176.585938 257.886719 176.980469 257.527344 177.414062 Z M 256.84375 175.292969 C 256.664062 175.003906 256.339844 174.75 256.085938 174.5 C 256.085938 174.5 255.367188 173.816406 255.367188 173.816406 C 252.992188 171.550781 250.582031 169.25 248.132812 167.054688 C 250.328125 169.5 252.632812 171.910156 254.898438 174.285156 C 255.117188 174.535156 255.726562 175.113281 255.941406 175.363281 C 256.410156 175.832031 256.484375 176.585938 256.125 177.160156 C 255.941406 177.378906 255.726562 177.664062 255.546875 177.917969 C 254.394531 179.425781 255.582031 178.382812 256.265625 177.917969 C 257.09375 177.378906 257.417969 176.15625 256.84375 175.292969 Z M 108.910156 94.835938 C 106.425781 98 104.953125 100.335938 104.304688 102.027344 L 104.195312 102.316406 L 101.460938 99.582031 L 101.460938 99.546875 C 101.03125 97.964844 106.5 89.726562 119.957031 76.277344 C 133.417969 62.824219 141.65625 57.355469 143.203125 57.789062 L 143.238281 57.789062 L 145.976562 60.523438 L 145.6875 60.628906 C 143.996094 61.242188 141.65625 62.753906 138.488281 65.234375 C 134.136719 68.652344 128.628906 73.648438 122.980469 79.296875 C 117.332031 84.945312 112.328125 90.445312 108.910156 94.835938 Z M 139.929688 59.585938 L 142.339844 61.996094 C 142.988281 61.566406 143.527344 61.242188 144.175781 60.917969 L 141.765625 58.507812 C 141.152344 58.832031 140.539062 59.191406 139.929688 59.585938 Z M 133.054688 64.730469 C 134.820312 64.15625 136.726562 64.117188 137.265625 65.738281 C 138.382812 64.839844 139.496094 63.976562 140.683594 63.148438 L 138.238281 60.703125 C 137.445312 61.242188 136.726562 61.78125 135.972656 62.390625 C 135 63.148438 134.027344 63.9375 133.054688 64.730469 Z M 110.3125 87.101562 C 109.808594 87.675781 109.304688 88.253906 108.839844 88.792969 L 111.285156 91.238281 C 112.003906 90.410156 112.761719 89.546875 113.550781 88.648438 C 113.625 88.574219 113.660156 88.503906 113.734375 88.433594 C 112.292969 87.785156 111.898438 86.632812 112.617188 84.441406 C 111.898438 85.339844 111.070312 86.273438 110.3125 87.101562 Z M 104.628906 100.410156 C 105.816406 98.179688 107.652344 95.769531 109.34375 93.683594 C 109.59375 93.394531 109.808594 93.070312 110.0625 92.785156 L 107.613281 90.339844 C 105.671875 92.75 103.65625 95.300781 102.253906 98.035156 Z M 104.628906 100.410156 " fill-opacity="1" fill-rule="nonzero"/><g clip-path="url(#436dcd0b3c)"><g clip-path="url(#50e5cf43af)"><path fill="#ffe500" d="M 36.832031 233.566406 L 338.1875 233.566406 L 338.1875 280.070312 L 36.832031 280.070312 Z M 36.832031 233.566406 " fill-opacity="1" fill-rule="nonzero"/></g></g><g fill="#fefefe" fill-opacity="1"><g transform="translate(137.714923, 296.293781)"><g><path d="M 8.71875 0 L 9.78125 0 L 5.453125 -10.789062 L 4.371094 -10.789062 L 0.0429688 0 L 1.109375 0 L 2.113281 -2.574219 L 7.710938 -2.574219 Z M 2.488281 -3.511719 L 4.917969 -9.667969 L 7.335938 -3.511719 Z M 2.488281 -3.511719 "/></g></g></g><g fill="#fefefe" fill-opacity="1"><g transform="translate(147.53575, 296.293781)"><g><path d="M 5.265625 0.144531 C 6.402344 0.144531 7.351562 -0.203125 8.113281 -0.90625 C 8.859375 -1.609375 9.25 -2.488281 9.25 -3.554688 L 9.25 -10.789062 L 8.269531 -10.789062 L 8.269531 -3.695312 C 8.269531 -2.878906 7.984375 -2.199219 7.410156 -1.652344 C 6.832031 -1.109375 6.113281 -0.835938 5.265625 -0.835938 C 4.402344 -0.835938 3.683594 -1.109375 3.105469 -1.652344 C 2.53125 -2.199219 2.242188 -2.878906 2.242188 -3.695312 L 2.242188 -10.789062 L 1.28125 -10.789062 L 1.28125 -3.554688 C 1.28125 -2.488281 1.652344 -1.609375 2.417969 -0.90625 C 3.164062 -0.203125 4.113281 0.144531 5.265625 0.144531 Z M 5.265625 0.144531 "/></g></g></g><g fill="#fefefe" fill-opacity="1"><g transform="translate(158.061155, 296.293781)"><g><path d="M 7.191406 -10.789062 L 0.1875 -10.789062 L 0.1875 -9.824219 L 3.195312 -9.824219 L 3.195312 0 L 4.171875 0 L 4.171875 -9.824219 L 7.191406 -9.824219 Z M 7.191406 -10.789062 "/></g></g></g><g fill="#fefefe" fill-opacity="1"><g transform="translate(165.423185, 296.293781)"><g><path d="M 6.488281 0.144531 C 8.011719 0.144531 9.320312 -0.386719 10.398438 -1.46875 C 11.480469 -2.546875 12.027344 -3.855469 12.027344 -5.394531 C 12.027344 -6.917969 11.480469 -8.226562 10.398438 -9.308594 C 9.320312 -10.386719 8.011719 -10.933594 6.488281 -10.933594 C 4.949219 -10.933594 3.640625 -10.386719 2.558594 -9.308594 C 1.480469 -8.226562 0.949219 -6.917969 0.949219 -5.394531 C 0.949219 -3.855469 1.480469 -2.546875 2.558594 -1.46875 C 3.640625 -0.386719 4.949219 0.144531 6.488281 0.144531 Z M 6.488281 -0.835938 C 5.222656 -0.835938 4.144531 -1.265625 3.25 -2.15625 C 2.359375 -3.050781 1.914062 -4.128906 1.914062 -5.394531 C 1.914062 -6.660156 2.359375 -7.726562 3.25 -8.617188 C 4.144531 -9.507812 5.222656 -9.953125 6.488281 -9.953125 C 7.753906 -9.953125 8.816406 -9.507812 9.710938 -8.617188 C 10.601562 -7.726562 11.046875 -6.660156 11.046875 -5.394531 C 11.046875 -4.128906 10.601562 -3.050781 9.710938 -2.15625 C 8.816406 -1.265625 7.753906 -0.835938 6.488281 -0.835938 Z M 6.488281 -0.835938 "/></g></g></g><g fill="#fefefe" fill-opacity="1"><g transform="translate(178.378628, 296.293781)"><g/></g></g><g fill="#fefefe" fill-opacity="1"><g transform="translate(182.40474, 296.293781)"><g><path d="M 6.6875 0.144531 C 7.378906 0.144531 8.085938 0 8.789062 -0.289062 C 9.492188 -0.574219 10.097656 -0.976562 10.601562 -1.480469 L 9.898438 -2.171875 C 9.019531 -1.28125 7.953125 -0.835938 6.6875 -0.835938 C 5.410156 -0.835938 4.328125 -1.265625 3.4375 -2.15625 C 2.546875 -3.035156 2.113281 -4.113281 2.113281 -5.394531 C 2.113281 -6.660156 2.546875 -7.738281 3.4375 -8.632812 C 4.328125 -9.507812 5.410156 -9.953125 6.6875 -9.953125 C 7.953125 -9.953125 9.019531 -9.507812 9.898438 -8.617188 L 10.601562 -9.308594 C 10.097656 -9.796875 9.492188 -10.199219 8.789062 -10.488281 C 8.085938 -10.773438 7.378906 -10.933594 6.6875 -10.933594 C 5.136719 -10.933594 3.828125 -10.386719 2.761719 -9.320312 C 1.683594 -8.242188 1.152344 -6.933594 1.152344 -5.394531 C 1.152344 -3.839844 1.683594 -2.53125 2.761719 -1.46875 C 3.828125 -0.386719 5.136719 0.144531 6.6875 0.144531 Z M 6.6875 0.144531 "/></g></g></g><g fill="#fefefe" fill-opacity="1"><g transform="translate(193.605953, 296.293781)"><g><path d="M 7.222656 -9.855469 L 7.222656 -10.789062 L 1.425781 -10.789062 L 1.425781 0 L 7.222656 0 L 7.222656 -0.933594 L 2.386719 -0.933594 L 2.386719 -4.917969 L 6.617188 -4.917969 L 6.617188 -5.867188 L 2.386719 -5.867188 L 2.386719 -9.855469 Z M 7.222656 -9.855469 "/></g></g></g><g fill="#fefefe" fill-opacity="1"><g transform="translate(201.528766, 296.293781)"><g><path d="M 9.0625 -10.789062 L 9.0625 -1.683594 L 2.199219 -10.789062 L 1.335938 -10.789062 L 1.335938 0 L 2.300781 0 L 2.300781 -9.121094 L 9.164062 0 L 10.027344 0 L 10.027344 -10.789062 Z M 9.0625 -10.789062 "/></g></g></g><g fill="#fefefe" fill-opacity="1"><g transform="translate(212.888148, 296.293781)"><g><path d="M 7.191406 -10.789062 L 0.1875 -10.789062 L 0.1875 -9.824219 L 3.195312 -9.824219 L 3.195312 0 L 4.171875 0 L 4.171875 -9.824219 L 7.191406 -9.824219 Z M 7.191406 -10.789062 "/></g></g></g><g fill="#fefefe" fill-opacity="1"><g transform="translate(220.250177, 296.293781)"><g><path d="M 7.222656 -9.855469 L 7.222656 -10.789062 L 1.425781 -10.789062 L 1.425781 0 L 7.222656 0 L 7.222656 -0.933594 L 2.386719 -0.933594 L 2.386719 -4.917969 L 6.617188 -4.917969 L 6.617188 -5.867188 L 2.386719 -5.867188 L 2.386719 -9.855469 Z M 7.222656 -9.855469 "/></g></g></g><g fill="#fefefe" fill-opacity="1"><g transform="translate(228.17299, 296.293781)"><g><path d="M 5.523438 -4.960938 C 6.242188 -5.050781 6.832031 -5.351562 7.320312 -5.898438 C 7.8125 -6.445312 8.054688 -7.078125 8.054688 -7.8125 C 8.054688 -8.632812 7.753906 -9.335938 7.179688 -9.910156 C 6.601562 -10.488281 5.898438 -10.789062 5.078125 -10.789062 L 1.335938 -10.789062 L 1.335938 0 L 2.300781 0 L 2.300781 -4.917969 L 4.460938 -4.917969 L 7.566406 0 L 8.71875 0 Z M 2.300781 -5.855469 L 2.300781 -9.8125 L 5.035156 -9.8125 C 5.609375 -9.8125 6.085938 -9.625 6.488281 -9.25 C 6.875 -8.875 7.078125 -8.402344 7.078125 -7.824219 C 7.078125 -7.25 6.875 -6.773438 6.488281 -6.402344 C 6.097656 -6.027344 5.609375 -5.855469 5.035156 -5.855469 Z M 2.300781 -5.855469 "/></g></g></g><g fill="#000000" fill-opacity="1"><g transform="translate(120.458807, 266.58341)"><g><path d="M 9.6875 -19 L 3.109375 -19 L 4.5 -25.578125 L 25.6875 -25.578125 L 24.296875 -19 L 17.71875 -19 L 13.703125 0 L 5.65625 0 Z M 9.6875 -19 "/></g></g></g><g fill="#000000" fill-opacity="1"><g transform="translate(143.098469, 266.58341)"><g><path d="M 6.3125 -25.578125 L 24.21875 -25.578125 L 22.9375 -19.546875 L 13.078125 -19.546875 L 12.28125 -15.703125 L 20.890625 -15.703125 L 19.734375 -10.234375 L 11.109375 -10.234375 L 10.234375 -6.03125 L 20.09375 -6.03125 L 18.8125 0 L 0.90625 0 Z M 6.3125 -25.578125 "/></g></g></g><g fill="#000000" fill-opacity="1"><g transform="translate(165.372985, 266.58341)"><g><path d="M 6.3125 -25.578125 L 14.359375 -25.578125 L 10.34375 -6.578125 L 20.5625 -6.578125 L 19.171875 0 L 0.90625 0 Z M 6.3125 -25.578125 "/></g></g></g><g fill="#000000" fill-opacity="1"><g transform="translate(186.917184, 266.58341)"><g><path d="M 6.3125 -25.578125 L 14.359375 -25.578125 L 10.34375 -6.578125 L 20.5625 -6.578125 L 19.171875 0 L 0.90625 0 Z M 6.3125 -25.578125 "/></g></g></g><g fill="#000000" fill-opacity="1"><g transform="translate(208.461384, 266.58341)"><g><path d="M 6.3125 -25.578125 L 24.21875 -25.578125 L 22.9375 -19.546875 L 13.078125 -19.546875 L 12.28125 -15.703125 L 20.890625 -15.703125 L 19.734375 -10.234375 L 11.109375 -10.234375 L 10.234375 -6.03125 L 20.09375 -6.03125 L 18.8125 0 L 0.90625 0 Z M 6.3125 -25.578125 "/></g></g></g><g fill="#000000" fill-opacity="1"><g transform="translate(230.735899, 266.58341)"><g><path d="M -0.25 -3.21875 L 6.09375 -7.59375 L 7.640625 -5.65625 L 13.296875 -5.65625 L 14.203125 -6.390625 L 14.875 -9.5 L 14.578125 -9.859375 L 5.953125 -9.859375 L 2.78125 -13.875 L 4.453125 -21.734375 L 9.3125 -25.75 L 22.65625 -25.75 L 25.3125 -22.359375 L 19.25 -17.96875 L 17.71875 -19.90625 L 12.859375 -19.90625 L 11.953125 -19.171875 L 11.28125 -16.078125 L 11.578125 -15.703125 L 20.203125 -15.703125 L 23.375 -11.6875 L 21.703125 -3.828125 L 16.796875 0.1875 L 2.453125 0.1875 Z M -0.25 -3.21875 "/></g></g></g></svg>